<?xml version="1.0" encoding="UTF-8" standalone="no"?>
<svg
   viewBox="0 0 100 100"
   width="100%"
   height="100%"
   version="1.1"
   id="svg4"
   sodipodi:docname="blades_logo.svg"
   inkscape:version="1.4.3 (0d15f75, 2025-12-25)"
   xmlns:inkscape="http://www.inkscape.org/namespaces/inkscape"
   xmlns:sodipodi="http://sodipodi.sourceforge.net/DTD/sodipodi-0.dtd"
   xmlns="http://www.w3.org/2000/svg"
   xmlns:svg="http://www.w3.org/2000/svg">
  <defs
     id="defs4" />
  <sodipodi:namedview
     id="namedview4"
     pagecolor="#ffffff"
     bordercolor="#000000"
     borderopacity="0.25"
     inkscape:showpageshadow="2"
     inkscape:pageopacity="0.0"
     inkscape:pagecheckerboard="0"
     inkscape:deskcolor="#d1d1d1"
     inkscape:zoom="8.0115198"
     inkscape:cx="41.627557"
     inkscape:cy="42.75094"
     inkscape:window-width="2560"
     inkscape:window-height="1351"
     inkscape:window-x="-9"
     inkscape:window-y="-9"
     inkscape:window-maximized="1"
     inkscape:current-layer="svg4" />
  <g
     id="g5">
    <path
       id="path5"
       style="fill:#e6e6e6;stroke-width:0.931754"
       d="m 49.798264,19.807263 c -11.221744,-0.07275 -21.505486,-0.09986 -32.713045,2.19653 -3.304971,0.677177 -7.3659448,1.561095 -9.8459073,5.349359 -3.909768,8.695597 5.1525613,29.736075 9.5188363,45.891084 l 5.708984,-37.688912 c 6.729804,-1.92659 16.846924,-1.950834 26.712891,-2.07885 v -0.02883 c 9.776949,0.120014 18.054758,0.07495 25.851562,1.751592 l 6.333985,38.01448 C 85.576588,56.784104 92.797197,32.409183 89.010148,26.27049 86.530186,22.482227 81.74815,22.293244 78.66496,21.737766 66.873821,19.613437 49.798264,19.807263 49.798264,19.807263 Z"
       sodipodi:nodetypes="csccccccccsc" />
  </g>
  <path
     style="fill:#d40000;stroke-width:1.00901"
     d="M 22.615196,35.424494 16.637262,73.217323 9.0272179,47.660714 6.4900287,36.727426 c 4.1507883,0.870196 6.0170073,2.353894 9.7698843,1.663279 1.656078,-0.304756 4.720337,0.354266 6.355283,-2.966211 z"
     id="path5-9"
     sodipodi:nodetypes="ccccsc" />
  <ellipse
     style="fill:#d40000;stroke-width:0.851607"
     id="path6"
     cx="16.289043"
     cy="90.964828"
     rx="6.0537825"
     ry="5.6460748" />
  <path
     sodipodi:type="star"
     style="fill:#d40000"
     id="path7"
     inkscape:flatsided="false"
     sodipodi:sides="3"
     sodipodi:cx="-53.423073"
     sodipodi:cy="-5.7417321"
     sodipodi:r1="19.725157"
     sodipodi:r2="9.8625774"
     sodipodi:arg1="-1.5518113"
     sodipodi:arg2="-0.50461372"
     inkscape:rounded="0"
     inkscape:randomized="0"
     d="m -53.048613,-25.463334 8.258859,14.953348 8.25886,14.9533469 -17.079409,-0.3242929 -17.079408,-0.3242911 8.82055,-14.6290549 z"
     inkscape:transform-center-x="0.06374882"
     inkscape:transform-center-y="-2.333935"
     transform="matrix(0.34047757,0,0,0.48947352,34.597183,87.106141)" />
</svg>
